<svg id="Layer_1" data-name="Layer 1" xmlns="http://www.w3.org/2000/svg" viewBox="0 0 2048 2048"><defs><style>.cls-1,.cls-10,.cls-6,.cls-7,.cls-8,.cls-9{font-size:80px;}.cls-1,.cls-11,.cls-5{fill:#fff;}.cls-1{font-family:TTNorms-Bold, TT Norms;font-weight:700;}.cls-2{letter-spacing:0.05em;}.cls-3{font-size:70.25px;letter-spacing:0.05em;}.cls-3,.cls-5{font-family:TTNorms-Regular, TT Norms;}.cls-3,.cls-4{font-weight:400;}.cls-4{font-size:135px;font-family:SamarkanNormal, Samarkan;}.cls-5{font-size:70px;letter-spacing:0.2em;}.cls-6{letter-spacing:0.16em;}.cls-7{letter-spacing:0.14em;}.cls-8{letter-spacing:0.1em;}.cls-9{letter-spacing:0.14em;}.cls-10{letter-spacing:0.16em;}.cls-12{fill:#f3ad7d;}.cls-13,.cls-15{fill:none;}.cls-13{stroke:#f3ad7d;stroke-miterlimit:10;stroke-width:30px;}.cls-14{fill:#e99b67;}.cls-16{fill:#2fb7ea;}</style></defs><title>Revels2020_Logo-wText</title><text class="cls-1" transform="translate(558.54 1461.69)"><tspan class="cls-2">REVELS’20</tspan><tspan class="cls-3" x="475.8" y="0" xml:space="preserve">  </tspan><tspan class="cls-4" x="509.52" y="0">QAINAAT</tspan></text><text class="cls-5" transform="translate(585.94 1574.42)"> <tspan class="cls-6" x="27.3" y="0">A </tspan><tspan class="cls-7" x="124.23" y="0">W</tspan><tspan class="cls-6" x="218.67" y="0">ORLD A</tspan><tspan class="cls-8" x="593.06" y="0">P</tspan><tspan class="cls-6" x="653.13" y="0">A</tspan><tspan class="cls-9" x="721.98" y="0">R</tspan><tspan class="cls-10" x="787.25" y="0">T</tspan></text><path class="cls-11" d="M573.47,855.32c2.95-5.81,5.29-10.74,6-16,1.25-8.91,2.49-17.84,4.24-26.83,1.67-8.56,5.62-17,10.75-24.77,3.77-5.67,8.84-10.55,13.37-15.74,10-11.44,21.69-19.79,33.07-28.65,8.81-6.86,17.79-13.34,26.69-20a5.57,5.57,0,0,1,2.94-1.26c-1.38,1.21-2.77,2.42-4.14,3.64a76.11,76.11,0,0,0-20.31,29.16c-5.58,14.06-11,28.17-16.74,42.2A112.27,112.27,0,0,1,620.84,814a54.27,54.27,0,0,1-19.14,18,60.87,60.87,0,0,1-5.4,2.95c-7.55,3.42-13.16,9.62-17.79,17.3-.77,1.27-1.49,2.58-2.3,3.83a13.51,13.51,0,0,0-2.4,9.66c2.75,22.28,7.9,43,16.08,61.89,1.53,3.54,1.46,3.64-3.25,9.25-1.31-3.12-2.59-6.12-3.83-9.14-8.7-21.19-13.62-44.61-15.7-69.74a21.2,21.2,0,0,0-23.72-19.54c-6.41.8-12.41.75-17.84-1.57-6.8-2.9-10.34-9-13.42-15.82q-6.92-15.25-13.78-30.56c-4.49-10-11.62-16.48-22.34-18.27-.29,0-.49-.33-.53-1,2.89.2,5.85.22,8.67.63,13.49,2,27.06,3.75,40.37,6.16,4.66.85,8.81,3.07,13,5.07,3.73,1.8,7.57,3.63,10.6,6.38,7.08,6.45,10.16,16.13,11.11,27.34.49,5.7.87,11.46,1.55,17.07a19.21,19.21,0,0,0,5.61,11.51c.16-2,.35-3.54.38-5,.4-23.48,2.75-47.38,8.72-72.06.91-3.79,1.6-7.6,2.85-11.37,2.76-8.3-1.57-21.08-8.42-23.23-11.45-3.59-16.23-13.12-16.52-26.95-.2-9.43-.58-18.8-.92-28.17-.41-11.32-1.89-21.94-8.84-29.08.31.07.69,0,.91.23,5.61,4.43,11.31,8.75,16.76,13.38,4.35,3.71,8.8,7.38,12.46,11.85a61.71,61.71,0,0,1,9.52,15.24c3.48,8.35,3.1,18.55.93,29.37-1.4,7-2.33,13.86-3.33,20.75a9.21,9.21,0,0,0,.67,4.76c1.36-3.93,2.74-7.86,4.07-11.79a365.61,365.61,0,0,1,25.17-57.91c6.18-11.34,13.11-22.38,19.64-33.58a10.85,10.85,0,0,0,1.36-3.85c.87-6.34-.89-10.83-4.61-14.15-4.19-3.75-5.69-9.41-3.85-16.74,2.63-10.5,5.59-21,8.33-31.5,1.93-7.43,3.64-14.83,2.27-21.48-.33-1.62-.9-3.11-1.36-4.66l.68-.55q4.27,7.57,8.54,15.15a68,68,0,0,1,7.45,19.93c1.8,8.75-.47,17.91-4.49,27.39-2.71,6.42-5.94,12.74-8.89,19.11a10.52,10.52,0,0,0-1,4.47c1.71-2.21,3.51-4.36,5.12-6.64a414.71,414.71,0,0,1,28.9-36.69c11.16-12.55,22.76-24.62,35.4-34.87,6.29-5.09,10.11-21,5.54-25.59-4.27-4.26-5.2-10.79-1.65-18.87,3.74-8.51,7.64-17,11.57-25.45s6.78-16.6,5.13-24.38c-.06-.29,0-.68.57-1.34,1.8,5.27,3.63,10.52,5.4,15.82,2.27,6.84,4.28,13.77,4.44,21.89s-2.63,15.67-7.69,23.21c-3.45,5.14-7,10.28-10.73,15.2-2.78,3.63-3.39,7.24-4.38,11.61a28.52,28.52,0,0,0,2.74-1.66,414.62,414.62,0,0,1,57.09-37.92,34.41,34.41,0,0,0,17-22.83c2.48-11,8.26-19.58,17.07-27,7.5-6.31,14.94-12.86,22-19.87,3.13-3.11,5.3-7.6,7.9-11.47a6.34,6.34,0,0,1,1.48-1.82c-.69,2-1.33,4-2.07,5.93-5.14,13.64-10.39,27.24-17.73,40.4-5.32,9.52-12.29,16.46-21.1,21-5.32,2.72-10.8,5-15.41,10.11-.33.37-.62.76-1.46,1.78,2.25-1,3.88-1.67,5.49-2.41a289.46,289.46,0,0,1,57.91-19.66,33.17,33.17,0,0,0,14.77-7.55,50,50,0,0,0,6.19-7.16c3.31-4.3,6.21-9,9.81-13a31.76,31.76,0,0,1,9.09-6.88c5.86-2.87,11.82-5,17.74-7.29,7.84-3,15.49-6.57,22.14-14,.5-.55.95-1.15,1.45-1.71a4.4,4.4,0,0,1,1.73-1.32,3.78,3.78,0,0,1-.37.9c-10.07,12.83-19.39,26.33-30.74,38-7,7.18-14.3,12.87-22.69,14.06-4.09.59-8,.5-12.11,1a33.58,33.58,0,0,0-5.58,1.73l-.08.79c1.64-.19,3.27-.3,4.92-.57A229.32,229.32,0,0,1,899.06,478a42.9,42.9,0,0,0,25.36-7.18c9.25-6.09,17-4.7,24.58-2.55,4.75,1.35,9.63,2.44,14.5,3.51,5.11,1.13,10.64,0,16.48-2.38a11.17,11.17,0,0,1-1.3,1c-13.69,7.77-27.39,15.21-41.45,20-7.6,2.57-13.76,1.58-19.19-1.75a19.89,19.89,0,0,1-3.88-2.72c-4.09-4.08-9.68-5-15.84-4.88-6.79.16-13.55.19-20.33.31a16.77,16.77,0,0,0-2.17.33l-.35,1.08c2.26.35,4.43,1,6.81,1,3.31-.08,6.78-.77,10.16-1.1,9.48-.94,16.36,2.81,21.74,9.22,8.48,10.11,14.3,22.63,20.41,34.88a1.9,1.9,0,0,1,0,1.4c-1-1.2-2-2.39-3-3.61-4.07-5.11-10.35-6.56-16.47-8.24-5.58-1.54-11.22-3-16.88-4.36-7.65-1.88-12-7.45-14.3-15.43-2.91-10.14-9.45-15.12-20.38-13.48a254,254,0,0,0-55.85,14.87c-1.38.55-2.76,1.23-4.15,1.84l-.15,1c3.15-.46,6.28-.52,9.46-1.47,6.89-2.06,13.83-4.41,20.16-3.39a25.7,25.7,0,0,1,8.86,2.92c8.54,5,15.61,12,22,19.73,3,3.69,6.22,7.27,9.33,10.89l-.47.64a33.23,33.23,0,0,1-3.28-2.36c-3.94-3.58-9.15-4.52-14.79-4.64-7.45-.15-14.82-.56-22.34-.49-9,.09-14.64-4.78-18.53-12-2.53-4.72-6.6-7.13-11.5-8.28a11.57,11.57,0,0,0-6.72.89c-20.89,9-41.18,20.95-61,35.25-2.82,2-5.61,4.17-8.33,6.47,6.05-.55,11.36-4.74,16.63-9.09,7.08-5.84,14.58-10.92,22.07-11.19,6.31-.24,12.66.52,17.95,2.73,9.59,4,18.4,9.43,27.53,14.27a2.25,2.25,0,0,1,1.11,1.24c-2.42-.52-4.77-1.25-7.28-1.54-6-.71-12.41,1.94-18.78,4.52-7.65,3.1-15.31,6.2-23,9.44s-13.56,1.7-18.48-2.4c-2-1.64-3.64-3.86-6-4.71-8-2.85-16.48-.32-25.21,7.23a405.83,405.83,0,0,0-52.08,53.64c-5.24,6.57-10.38,13.23-15.43,20.08a22.71,22.71,0,0,0,10-7c3.67-4.28,7.23-8.69,11-12.77,9.34-10,19.31-15.09,30.39-16.13,11.53-1.09,22,.53,32.68,1.94a87.68,87.68,0,0,1,13.11,2.62,5.88,5.88,0,0,1-1.41.31c-10.51-.33-20.53,5.73-30.54,13.25-7.34,5.52-14.78,10.77-22.23,16-8.07,5.65-15.52,6.12-21.91,3.21s-13.06-2.95-20.88,1.5a19.18,19.18,0,0,0-5.87,5.23,357.24,357.24,0,0,0-37.82,68.2c-5.62,13.41-10.13,27-15.12,40.58-.31.84-.46,1.7-.8,3a63.74,63.74,0,0,0,14.07-20.31,211.5,211.5,0,0,1,10.36-20.91A62.78,62.78,0,0,1,628.81,688c14.85-10.37,30.12-16.42,45.48-22,6.36-2.3,12.71-4.48,19.16-6.41-.58.35-1.15.76-1.74,1a62.82,62.82,0,0,0-23.53,19.86q-14,19.13-28.46,38c-7.66,10-17,15.26-26.65,16.3-10.57,1.15-18.76,8-26.33,17.63a17.57,17.57,0,0,0-3.1,5.67c-8.7,32-12.19,62.83-10.72,92.56C573,852,573.23,853.3,573.47,855.32Z"/><path class="cls-11" d="M1469.24,855.32c-2.94-5.81-5.28-10.74-6-16-1.26-8.91-2.49-17.84-4.24-26.83-1.68-8.56-5.62-17-10.75-24.77-3.78-5.67-8.84-10.55-13.37-15.74-10-11.44-21.7-19.79-33.08-28.65-8.8-6.86-17.78-13.34-26.69-20a5.58,5.58,0,0,0-2.93-1.26c1.38,1.21,2.77,2.42,4.14,3.64a76.09,76.09,0,0,1,20.3,29.16c5.59,14.06,11,28.17,16.74,42.2a113.27,113.27,0,0,0,8.54,16.88,54.16,54.16,0,0,0,19.13,18c1.79,1,3.59,2.13,5.4,2.95,7.56,3.42,13.17,9.62,17.8,17.3.77,1.27,1.48,2.58,2.3,3.83a13.5,13.5,0,0,1,2.39,9.66c-2.74,22.28-7.89,43-16.07,61.89-1.53,3.54-1.46,3.64,3.25,9.25,1.3-3.12,2.58-6.12,3.83-9.14,8.7-21.19,13.61-44.61,15.7-69.74a21.19,21.19,0,0,1,23.71-19.54c6.42.8,12.41.75,17.84-1.57,6.81-2.9,10.35-9,13.42-15.82q6.93-15.25,13.79-30.56c4.49-10,11.61-16.48,22.34-18.27.29,0,.49-.33.53-1-2.89.2-5.86.22-8.67.63-13.5,2-27.06,3.75-40.37,6.16-4.67.85-8.81,3.07-13,5.07-3.73,1.8-7.57,3.63-10.6,6.38-7.09,6.45-10.17,16.13-11.12,27.34-.48,5.7-.86,11.46-1.54,17.07a19.32,19.32,0,0,1-5.61,11.51c-.16-2-.35-3.54-.38-5a327.59,327.59,0,0,0-8.72-72.06c-.91-3.79-1.6-7.6-2.85-11.37-2.77-8.3,1.57-21.08,8.42-23.23,11.44-3.59,16.22-13.12,16.52-26.95.2-9.43.57-18.8.91-28.17.42-11.32,1.89-21.94,8.84-29.08a2.39,2.39,0,0,0-.91.23c-5.6,4.43-11.3,8.75-16.75,13.38-4.35,3.71-8.8,7.38-12.46,11.85a61.45,61.45,0,0,0-9.53,15.24c-3.47,8.35-3.09,18.55-.92,29.37,1.39,7,2.32,13.86,3.32,20.75a9.1,9.1,0,0,1-.66,4.76c-1.36-3.93-2.74-7.86-4.08-11.79A365.56,365.56,0,0,0,1432,675.33c-6.18-11.34-13.11-22.38-19.65-33.58a11.05,11.05,0,0,1-1.36-3.85c-.86-6.34.9-10.83,4.62-14.15,4.18-3.75,5.68-9.41,3.84-16.74-2.62-10.5-5.59-21-8.32-31.5-1.93-7.43-3.64-14.83-2.28-21.48.34-1.62.91-3.11,1.37-4.66l-.68-.55q-4.27,7.57-8.54,15.15a68,68,0,0,0-7.45,19.93c-1.81,8.75.46,17.91,4.48,27.39,2.72,6.42,6,12.74,8.89,19.11a10.53,10.53,0,0,1,1,4.47c-1.72-2.21-3.52-4.36-5.13-6.64a411,411,0,0,0-28.9-36.69c-11.15-12.55-22.75-24.62-35.4-34.87-6.28-5.09-10.11-21-5.54-25.59,4.27-4.26,5.21-10.79,1.66-18.87-3.75-8.51-7.65-17-11.58-25.45s-6.78-16.6-5.12-24.38c.06-.29,0-.68-.57-1.34-1.8,5.27-3.64,10.52-5.4,15.82-2.27,6.84-4.29,13.77-4.45,21.89s2.63,15.67,7.7,23.21c3.45,5.14,7,10.28,10.73,15.2,2.77,3.63,3.39,7.24,4.37,11.61a28.19,28.19,0,0,1-2.73-1.66,415.23,415.23,0,0,0-57.09-37.92,34.38,34.38,0,0,1-17-22.83c-2.49-11-8.27-19.58-17.07-27-7.51-6.31-14.94-12.86-22-19.87-3.14-3.11-5.31-7.6-7.9-11.47a6.52,6.52,0,0,0-1.48-1.82c.69,2,1.32,4,2.07,5.93,5.14,13.64,10.38,27.24,17.73,40.4,5.31,9.52,12.28,16.46,21.1,21,5.32,2.72,10.8,5,15.41,10.11.32.37.62.76,1.46,1.78-2.25-1-3.88-1.67-5.5-2.41a289.38,289.38,0,0,0-57.9-19.66,33.07,33.07,0,0,1-14.77-7.55,50,50,0,0,1-6.19-7.16c-3.32-4.3-6.22-9-9.81-13a31.8,31.8,0,0,0-9.1-6.88c-5.86-2.87-11.81-5-17.73-7.29-7.84-3-15.49-6.57-22.15-14-.49-.55-.95-1.15-1.44-1.71a4.4,4.4,0,0,0-1.73-1.32,3.78,3.78,0,0,0,.37.9c10.06,12.83,19.38,26.33,30.74,38,7,7.18,14.3,12.87,22.69,14.06,4.08.59,8,.5,12.11,1a33.19,33.19,0,0,1,5.57,1.73l.09.79c-1.64-.19-3.27-.3-4.92-.57a229.43,229.43,0,0,0-39.43-2.43,42.92,42.92,0,0,1-25.36-7.18c-9.25-6.09-17-4.7-24.57-2.55-4.75,1.35-9.63,2.44-14.51,3.51-5.1,1.13-10.64,0-16.48-2.38a12.17,12.17,0,0,0,1.31,1c13.68,7.77,27.39,15.21,41.44,20,7.6,2.57,13.77,1.58,19.2-1.75a19.52,19.52,0,0,0,3.87-2.72c4.1-4.08,9.68-5,15.84-4.88,6.8.16,13.56.19,20.34.31a17.31,17.31,0,0,1,2.17.33l.35,1.08c-2.26.35-4.44,1-6.81,1-3.31-.08-6.78-.77-10.16-1.1-9.48-.94-16.36,2.81-21.74,9.22-8.48,10.11-14.3,22.63-20.41,34.88a1.8,1.8,0,0,0,0,1.4c1-1.2,2-2.39,3-3.61,4.06-5.11,10.34-6.56,16.46-8.24,5.59-1.54,11.23-3,16.88-4.36,7.65-1.88,12-7.45,14.31-15.43,2.91-10.14,9.44-15.12,20.38-13.48a254.17,254.17,0,0,1,55.85,14.87c1.38.55,2.76,1.23,4.14,1.84l.16,1c-3.16-.46-6.28-.52-9.46-1.47-6.89-2.06-13.83-4.41-20.16-3.39a25.63,25.63,0,0,0-8.86,2.92c-8.54,5-15.61,12-22,19.73-3,3.69-6.21,7.27-9.32,10.89l.47.64a33.23,33.23,0,0,0,3.28-2.36c3.93-3.58,9.15-4.52,14.79-4.64,7.44-.15,14.82-.56,22.33-.49,9,.09,14.65-4.78,18.54-12,2.53-4.72,6.6-7.13,11.5-8.28a11.58,11.58,0,0,1,6.72.89c20.88,9,41.17,20.95,61,35.25,2.83,2,5.62,4.17,8.34,6.47-6.06-.55-11.36-4.74-16.64-9.09-7.08-5.84-14.58-10.92-22.07-11.19-6.3-.24-12.66.52-17.94,2.73-9.59,4-18.41,9.43-27.54,14.27a2.24,2.24,0,0,0-1.1,1.24c2.42-.52,4.77-1.25,7.28-1.54,6-.71,12.41,1.94,18.77,4.52,7.66,3.1,15.32,6.2,23,9.44s13.56,1.7,18.48-2.4c2-1.64,3.63-3.86,6-4.71,8-2.85,16.49-.32,25.21,7.23a405.27,405.27,0,0,1,52.09,53.64c5.24,6.57,10.38,13.23,15.43,20.08a22.65,22.65,0,0,1-10-7c-3.67-4.28-7.23-8.69-11.06-12.77-9.33-10-19.3-15.09-30.38-16.13-11.53-1.09-22,.53-32.68,1.94a88.06,88.06,0,0,0-13.12,2.62,6,6,0,0,0,1.42.31c10.51-.33,20.53,5.73,30.54,13.25,7.33,5.52,14.78,10.77,22.23,16,8.07,5.65,15.51,6.12,21.9,3.21s13.07-2.95,20.89,1.5a19.3,19.3,0,0,1,5.87,5.23,356.65,356.65,0,0,1,37.81,68.2c5.63,13.41,10.14,27,15.13,40.58.31.84.45,1.7.8,3a63.93,63.93,0,0,1-14.08-20.31,213.64,213.64,0,0,0-10.35-20.91A62.69,62.69,0,0,0,1413.9,688c-14.85-10.37-30.12-16.42-45.48-22-6.35-2.3-12.71-4.48-19.15-6.41.58.35,1.15.76,1.73,1a62.67,62.67,0,0,1,23.53,19.86q14.06,19.13,28.46,38c7.67,10,17,15.26,26.66,16.3,10.57,1.15,18.75,8,26.33,17.63a17.35,17.35,0,0,1,3.09,5.67c8.71,32,12.2,62.83,10.73,92.56C1469.73,852,1469.49,853.3,1469.24,855.32Z"/><path class="cls-12" d="M538.78,927.12c-2.38,3.29-4.58,6.31-6.76,9.33-1.78,2.46-3.46,5-5.33,7.39-7.72,9.84-7.57,20.12-2.15,30.91,10.46,20.83,25.31,38.41,41.16,55.15,10.58,11.18,21.8,21.74,32.73,32.57a30.94,30.94,0,0,1,2.2,2.24,4.11,4.11,0,0,1,0,5.73,4.42,4.42,0,0,1-6,1,5.18,5.18,0,0,1-1-.76c-23.6-22-46.65-44.61-65-71.34A167,167,0,0,1,514,973.38c-5.1-11.33-3.48-22.72,3.72-32.81q33.62-47.07,67.64-93.86c10.51-14.45,10.38-33.37-.83-46.5-.4-.47-.87-.88-1.58-1.58-.76,1-1.46,1.83-2.11,2.72-33,44.93-66.21,89.72-98.92,134.86-16.79,23.18-21.75,49.21-16.07,77.31,3,14.69,10,27.36,18.23,39.64q70.56,105.16,140.84,210.51c1.85,2.78,3.43,3.14,6.34,1.9,21.82-9.32,39-23.89,50.52-44.75,11.86-21.37,15.28-44.27,12.44-68.36-3.37-28.47-17.1-52-35-73.44-20.89-25-46.12-45-73.24-62.74-19.29-12.62-32.38-30.08-39.56-51.93a161.61,161.61,0,0,1-5-18.17C540.18,940.07,539.68,933.82,538.78,927.12Z"/><path class="cls-12" d="M608.9,879.17a41.29,41.29,0,0,0-19.15,16.36c-7.36,11.76-9.16,24.3-4.9,37.63,9.4,29.35,18.72,58.72,28.17,88.06a9.66,9.66,0,0,0,2.88,4.61c21.14,16.16,40.6,34,56.8,55.27.11.14.34.2.76.44Z"/><path class="cls-12" d="M450,920.22c1-5.88,1.78-11.14,2.84-16.35,2.46-12.18,8.51-22.94,13.79-34,3.76-7.84,7.72-15.59,11.32-23.51,1.24-2.72,1.75-5.8,2.46-8.74,9.22-38.19,18.36-76.41,27.66-114.58,1.57-6.43,3.21-12.74,2.4-19.48-1.39-11.55-10-23.9-19.94-27.87-.49,1.7-1,3.37-1.45,5.06q-20.68,78.4-41.37,156.82a126.16,126.16,0,0,0-2,56.6C447.25,902.6,448.49,911.09,450,920.22Z"/><path class="cls-12" d="M461.43,954.08c1.84-3.85,3.36-7.92,5.6-11.53,4.37-7,8.7-14.14,13.84-20.58,12.84-16.08,22.74-33.73,31.12-52.51,13.61-30.53,28.07-60.68,42.23-91,7.16-15.3,2.16-35.58-11.34-44.44-.61,1-1.28,2-1.8,3.12q-28.14,58.14-56.26,116.32c-5.7,11.79-11.45,23.56-17.07,35.39-7.39,15.56-9.31,32-8,49,.4,5.39.66,10.79,1,16.19Z"/><circle class="cls-13" cx="1024.49" cy="911.23" r="375.82"/><path class="cls-14" d="M624.92,1263.67q-70.3-105.33-140.85-210.51c-8.23-12.28-15.26-25-18.23-39.64-3.93-19.49-2.75-38,4-55.22,22.08,120.72,161.47,307.27,161.47,307.27C628.35,1266.81,626.77,1266.45,624.92,1263.67Z"/><path class="cls-14" d="M508.07,723.05c1.57-6.43,3.21-12.74,2.4-19.48-1.34-11.13-9.39-23-18.87-27.38,6.66,19.94,12.2,41.73,14.95,53.13C507.06,727.23,507.56,725.14,508.07,723.05Z"/><path class="cls-14" d="M542.89,734.06c4.74,14.11,9,31.7,11.71,43.57C561.18,762.44,556.13,742.76,542.89,734.06Z"/><path class="cls-14" d="M584.53,800.21c-.4-.47-.87-.88-1.58-1.58l-.85,1.08c2.5,15.06,3.7,33.38,4.26,45.55C595.85,831,595.37,812.91,584.53,800.21Z"/><path class="cls-12" d="M1509.22,927.12c2.38,3.29,4.58,6.31,6.76,9.33,1.78,2.46,3.46,5,5.33,7.39,7.72,9.84,7.57,20.12,2.15,30.91-10.46,20.83-25.31,38.41-41.16,55.15-10.58,11.18-21.8,21.74-32.73,32.57a30.94,30.94,0,0,0-2.2,2.24,4.11,4.11,0,0,0,0,5.73,4.42,4.42,0,0,0,6,1,5.18,5.18,0,0,0,1-.76c23.6-22,46.65-44.61,65.05-71.34A167,167,0,0,0,1534,973.38c5.1-11.33,3.48-22.72-3.72-32.81q-33.62-47.07-67.64-93.86c-10.51-14.45-10.38-33.37.83-46.5.4-.47.87-.88,1.58-1.58.76,1,1.46,1.83,2.11,2.72,33,44.93,66.21,89.72,98.92,134.86,16.79,23.18,21.75,49.21,16.07,77.31-3,14.69-10,27.36-18.23,39.64q-70.56,105.16-140.84,210.51c-1.85,2.78-3.43,3.14-6.34,1.9-21.82-9.32-39-23.89-50.52-44.75-11.86-21.37-15.28-44.27-12.44-68.36,3.37-28.47,17.1-52,35-73.44,20.89-25,46.12-45,73.24-62.74,19.29-12.62,32.38-30.08,39.56-51.93a161.61,161.61,0,0,0,5-18.17C1507.82,940.07,1508.32,933.82,1509.22,927.12Z"/><path class="cls-12" d="M1439.1,879.17a41.29,41.29,0,0,1,19.15,16.36c7.36,11.76,9.16,24.3,4.9,37.63-9.4,29.35-18.72,58.72-28.17,88.06a9.66,9.66,0,0,1-2.88,4.61c-21.14,16.16-40.6,34-56.8,55.27-.11.14-.34.2-.76.44Z"/><path class="cls-12" d="M1598,920.22c-1-5.88-1.78-11.14-2.84-16.35-2.46-12.18-8.51-22.94-13.79-34-3.76-7.84-7.72-15.59-11.32-23.51-1.24-2.72-1.75-5.8-2.46-8.74-9.22-38.19-18.36-76.41-27.66-114.58-1.57-6.43-3.21-12.74-2.4-19.48,1.39-11.55,10-23.9,19.94-27.87.49,1.7,1,3.37,1.45,5.06q20.68,78.4,41.37,156.82a126.16,126.16,0,0,1,2,56.6C1600.75,902.6,1599.51,911.09,1598,920.22Z"/><path class="cls-12" d="M1586.57,954.08c-1.84-3.85-3.36-7.92-5.6-11.53-4.37-7-8.7-14.14-13.84-20.58-12.84-16.08-22.74-33.73-31.12-52.51-13.61-30.53-28.07-60.68-42.23-91-7.16-15.3-2.16-35.58,11.34-44.44.61,1,1.28,2,1.8,3.12q28.14,58.14,56.26,116.32c5.7,11.79,11.45,23.56,17.07,35.39,7.39,15.56,9.31,32,8,49-.4,5.39-.66,10.79-1,16.19Z"/><path class="cls-14" d="M1423.08,1263.67q70.31-105.33,140.84-210.51c8.24-12.28,15.27-25,18.23-39.64,3.94-19.49,2.76-38-3.94-55.22-22.08,120.72-161.47,307.27-161.47,307.27C1419.65,1266.81,1421.23,1266.45,1423.08,1263.67Z"/><path class="cls-14" d="M1539.68,723.05c-1.57-6.43-3.2-12.74-2.39-19.48,1.33-11.13,9.38-23,18.86-27.38-6.66,19.94-12.2,41.73-15,53.13C1540.69,727.23,1540.19,725.14,1539.68,723.05Z"/><path class="cls-14" d="M1504.87,734.06c-4.75,14.11-9,31.7-11.72,43.57C1486.58,762.44,1491.62,742.76,1504.87,734.06Z"/><path class="cls-14" d="M1463.22,800.21c.4-.47.87-.88,1.58-1.58l.85,1.08c-2.5,15.06-3.7,33.38-4.26,45.55C1451.91,831,1452.38,812.91,1463.22,800.21Z"/><path class="cls-15" d="M693.44,922.61a107.86,107.86,0,0,0,1.64,18.74A139.37,139.37,0,0,1,693.44,922.61Z"/><path class="cls-11" d="M970.11,869.2a41.42,41.42,0,0,0,8.56-.77,20.91,20.91,0,0,0,5.2-1.63H951c2.52.46,5.5,1,9,1.54A61.82,61.82,0,0,0,970.11,869.2Z"/><path class="cls-11" d="M860.87,880.62q-19.18,0-30.59-4.51A23,23,0,0,1,819.17,867c.4,1.88,5.24,16.19,59.78,14.48l.95,0v-.83Z"/><path class="cls-11" d="M1107.56,867.68a70.16,70.16,0,0,0,12,1.37,23.44,23.44,0,0,0,5.07-.69,44.87,44.87,0,0,0,5.39-1.53l2,3.59c.78-1.14,1.54-2.35,2.26-3.62H1105v.32A22.36,22.36,0,0,0,1107.56,867.68Z"/><path class="cls-11" d="M928.25,879l1,1.63H917.47a26.17,26.17,0,0,1-18.23-6.92,38.56,38.56,0,0,1-5.38-6.9h-7.3l7.92,13.71v.64c10.59-.17,24-.28,39.32-.36v-.31A40.76,40.76,0,0,1,928.25,879Z"/><path class="cls-11" d="M1009.6,869.2a41.86,41.86,0,0,0,8.57-.77,20.76,20.76,0,0,0,5.24-1.63h-32q3.44.69,8.35,1.54A56.7,56.7,0,0,0,1009.6,869.2Z"/><path class="cls-11" d="M1229.43,881.48l-10.28-14.68h-5.22v14.59Z"/><path class="cls-11" d="M908.59,868.89a51.09,51.09,0,0,0,6.54-.37c-.27-.52-.54-1.07-.83-1.69a27.61,27.61,0,0,0,3.65.85l.71.12a8.88,8.88,0,0,0,2.44-1H893.89a56.82,56.82,0,0,0,6,1.47A48.13,48.13,0,0,0,908.59,868.89Z"/><path class="cls-11" d="M978.35,880.62q-14.9,0-22.67-6.92a21.61,21.61,0,0,1-4.75-6.9H949v13.93c10.91,0,22.54-.05,34.62-.06l0,0Z"/><path class="cls-11" d="M1105.66,870.16c-.22-.34-.44-.74-.68-1.18v11.9l18.43.07v-.47Q1111.2,878.11,1105.66,870.16Z"/><path class="cls-11" d="M844.07,868.89q10.45,0,27.58-1,5.51-.3,14.74-1H819.15q7.35.74,11.13,1Q841.85,868.89,844.07,868.89Z"/><path class="cls-11" d="M992.6,880.66H1017v0a29.59,29.59,0,0,1-19.65-6.92,37.59,37.59,0,0,1-6-6.9h-7.45a136.75,136.75,0,0,1,8.23,13Z"/><path class="cls-11" d="M1171.68,880.62q-22.29,0-29.09-9.46a12.68,12.68,0,0,1-1.74-4.33q6.64,1,10.44,1.34a171.79,171.79,0,0,0,18.67,1.35q4.43,0,15.1-.84t20.18-1.85l2,3.55c.76-1.13,1.52-2.33,2.22-3.58h-70.73V881c23.4.09,44.09.2,59.78.28v-.68Z"/><path class="cls-11" d="M1063,880.62q-22.35,0-29.17-9.46a12.87,12.87,0,0,1-1.75-4.33q6.66,1,10.47,1.34a172.24,172.24,0,0,0,18.71,1.35q4.43,0,15-.84t19.89-1.85l2.13,3.66c.79-1.16,1.57-2.4,2.3-3.69h-77.12l7.85,13.69v.2c19.48,0,39.23.08,58.35.14v-.21Z"/><path class="cls-11" d="M930,869.05a23.44,23.44,0,0,0,5.07-.69,45.4,45.4,0,0,0,5.39-1.53l2,3.46c.75-1.1,1.48-2.27,2.17-3.49H921.13l.9,1.55A56.47,56.47,0,0,0,930,869.05Z"/><path class="cls-11" d="M921.12,866.79h0Z"/><path class="cls-11" d="M922,868.35l-.9-1.55h0a8.88,8.88,0,0,1-2.44,1C919.84,868,921,868.2,922,868.35Z"/><path class="cls-11" d="M879.9,905.51a52.34,52.34,0,0,0-5.39-8.16,25.11,25.11,0,0,0-4.44-4.21,16.31,16.31,0,0,0-5.63-2.22,30.45,30.45,0,0,0-6.42-.79q-10.47,0-17,6.34a20.69,20.69,0,0,0-6.51,15.38q0,8.88,9.44,17.2t19.42,8.33a19,19,0,0,0,8.09-2.14,32.58,32.58,0,0,0,7.76-5.16v8.2c-7,47.89-45.68,84.52-92.33,84.52a88.68,88.68,0,0,1-51.45-16.53,44.57,44.57,0,0,0,3.61,3.11,50.33,50.33,0,0,0,7,3.37c-1.83-.07-4.23-1.26-7-3.37-12.33-7-37.32-26-44-68a107.86,107.86,0,0,1-1.64-18.74c-2.49,57.28,43.74,105.3,99.44,105.48,44.17.14,82.78-29.84,95.64-71.15l.07.07c1.41-4.08,4.77-15.53,5.77-34.4l.12.21v-1q0-3.17,8.64-7.61t12.29-4.44a4.57,4.57,0,0,1,3.33,1.43,4.74,4.74,0,0,1,1.43,3.48,29.94,29.94,0,0,1-3.49,14.91l-8.09,9c0,1.59,1.17,3.07,3.49,4.45a13.43,13.43,0,0,0,6.82,2.06,18.6,18.6,0,0,0,7.93-5.71,23,23,0,0,0,5.07-15.06,28,28,0,0,0-6.74-18.71q-6.74-7.92-15-7.93A23.71,23.71,0,0,0,902,899.8a22.81,22.81,0,0,0-7.54,4.44V881.15c-5.73.08-10.64.18-14.58.3Zm-12.62,16.17q-9.94,5.55-13.09,5.55a5.22,5.22,0,0,1-4.19-2.38,10.18,10.18,0,0,1-1.81-6.34,14.9,14.9,0,0,1,4.42-10.31,13.44,13.44,0,0,1,10.09-4.75,18.84,18.84,0,0,1,8.91,2.61,24.4,24.4,0,0,1,8.29,7.54Q876.27,916.77,867.28,921.68Z"/><path class="cls-11" d="M886.56,866.79h0Z"/><path class="cls-11" d="M819.15,866.8H819l.15.21c0-.13,0-.2,0-.2Z"/><path class="cls-11" d="M886.56,866.8h-.17q-9.23.74-14.74,1-17.11,1-27.58,1-2.22,0-13.79-1-3.78-.3-11.13-1h0s0,.07,0,.2a23,23,0,0,0,11.11,9.11q11.41,4.51,30.59,4.51h19v.83c3.94-.12,8.85-.22,14.58-.3v-.64Z"/><path class="cls-11" d="M893.85,866.79h0Z"/><path class="cls-11" d="M899.24,873.7a26.17,26.17,0,0,0,18.23,6.92H929.2l-1-1.63A24.23,24.23,0,0,1,916,870.16c-.28-.46-.59-1-.91-1.64a51.09,51.09,0,0,1-6.54.37,48.13,48.13,0,0,1-8.72-.62,56.82,56.82,0,0,1-6-1.47h0A38.56,38.56,0,0,0,899.24,873.7Z"/><path class="cls-11" d="M918.66,867.8l-.71-.12a27.61,27.61,0,0,1-3.65-.85c.29.62.56,1.17.83,1.69.54-.07,1.07-.15,1.55-.25C917.43,868.13,918.07,868,918.66,867.8Z"/><path class="cls-11" d="M918.66,867.8c-.59.17-1.23.33-2,.47-.48.1-1,.18-1.55.25.32.62.63,1.18.91,1.64A24.23,24.23,0,0,0,928.25,879L922,868.35C921,868.2,919.84,868,918.66,867.8Z"/><path class="cls-11" d="M935.07,868.36a23.44,23.44,0,0,1-5.07.69,56.47,56.47,0,0,1-8-.7L928.25,879a40.76,40.76,0,0,0,5.55,1.49,62.3,62.3,0,0,0,8.62-10.19l-2-3.46A45.4,45.4,0,0,1,935.07,868.36Z"/><path class="cls-11" d="M950.92,866.79h0Z"/><path class="cls-11" d="M983.9,866.79h0Z"/><path class="cls-11" d="M1017,910.27a51.36,51.36,0,0,1-13.15,8.08q-8.42,3.81-13,3.81-5.4,0-7.93-2a6.43,6.43,0,0,1-2.54-5.33q0-4.62,7-6.36t9.67-3.35c1.8-1.06,2.69-2.39,2.69-4q0-7.56-7.15-20.5h-9a18.54,18.54,0,0,1,2.5,5.1,15.6,15.6,0,0,1,.79,4.36q0,2.54-3.49,4.28c-1.26.64-4,1.72-8.32,3.25a52.29,52.29,0,0,1-8.8,2.62q3,15.22,11.66,24.89T997,934.84a28.39,28.39,0,0,0,9.76-2,47,47,0,0,0,10.24-5.31v9.7l14.24,1.1c0,.3,0,.61,0,.93V880.69l-14.27,0Z"/><path class="cls-11" d="M991.35,866.79h0Z"/><path class="cls-11" d="M1023.44,866.79h0Z"/><path class="cls-11" d="M1023.45,866.8h0a20.76,20.76,0,0,1-5.24,1.63,41.86,41.86,0,0,1-8.57.77,56.7,56.7,0,0,1-9.83-.86q-4.92-.86-8.35-1.54h-.06a37.59,37.59,0,0,0,6,6.9,29.59,29.59,0,0,0,19.65,6.92v0l14.27,0v-.2Z"/><path class="cls-11" d="M992.14,879.83a136.75,136.75,0,0,0-8.23-13h0a20.91,20.91,0,0,1-5.2,1.63,41.42,41.42,0,0,1-8.56.77,61.82,61.82,0,0,1-10.15-.86c-3.46-.57-6.44-1.08-9-1.54h-.07a21.61,21.61,0,0,0,4.75,6.9q7.77,6.91,22.67,6.92h5.23l0,0h9Z"/><path class="cls-11" d="M1089.65,880.83v14.69h-38.37a3.78,3.78,0,0,0-2.86,1.43,4.35,4.35,0,0,0-1.27,2.85q0,4.61,6.5,13t9.52,8.41q4.9,0,4.91-3.65v-5.71c0-2,1-3,2.86-3h18.71V942a9.65,9.65,0,0,0,.13,1.59V880.83Z"/><path class="cls-11" d="M1089.78,880.48a62.51,62.51,0,0,0,8.49-10l-2.13-3.66q-9.35,1-19.89,1.85t-15,.84a172.24,172.24,0,0,1-18.71-1.35q-3.81-.33-10.47-1.34a12.87,12.87,0,0,0,1.75,4.33q6.81,9.47,29.17,9.46h26.64v.21h.13Z"/><path class="cls-11" d="M1123.41,881v61a9.47,9.47,0,0,0,.17,1.73V881Z"/><path class="cls-11" d="M1123.58,880.48a62.46,62.46,0,0,0,8.53-10.06l-2-3.59a44.87,44.87,0,0,1-5.39,1.53,23.44,23.44,0,0,1-5.07.69,70.16,70.16,0,0,1-12-1.37,22.36,22.36,0,0,1-2.58-.56V869c.24.44.46.84.68,1.18q5.55,7.94,17.75,10.32V881h.17Z"/><path class="cls-11" d="M1159.52,921.64c.85-.58,7.86,12.18,21.19,24.8-2.73-4.3-4.88-7.82-6.41-10.49q-4.75-8.4-4.75-15.54,0-6.81,2.69-10,3.33-4,10.78-4h15.54V942a10.41,10.41,0,0,0,.16,1.73V881.3h-.16v11.84h-20.85q-10.43,0-16.43,5.24a14.73,14.73,0,0,0-5.37,11.41q0,9.68,7.46,22.2,1.26,2.12,2.72,4.28C1161.36,928.38,1158.94,922,1159.52,921.64Z"/><path class="cls-11" d="M1198.72,880.48a62.4,62.4,0,0,0,8.57-10.1l-2-3.55q-9.49,1-20.18,1.85t-15.1.84a171.79,171.79,0,0,1-18.67-1.35q-3.8-.33-10.44-1.34a12.68,12.68,0,0,0,1.74,4.33q6.79,9.47,29.09,9.46h26.88v.68h.16Z"/><path class="cls-11" d="M735.48,1006.27c-30.22-28.61-87-143,50.88-164.88C943.77,816.39,888.21,734,888.21,734c23.15,47.22-14.81,92.59-104.63,95.37s-90.14,93.26-90.14,93.26a139.37,139.37,0,0,0,1.64,18.74C699.86,968.41,714.79,991.63,735.48,1006.27Z"/><path class="cls-11" d="M695.08,941.35c6.69,42,31.68,61,44,68a44.57,44.57,0,0,1-3.61-3.11C714.79,991.63,699.86,968.41,695.08,941.35Z"/><path class="cls-11" d="M739.09,1009.38c2.76,2.11,5.16,3.3,7,3.37A50.33,50.33,0,0,1,739.09,1009.38Z"/><path class="cls-11" d="M948.23,941.67a16.82,16.82,0,0,0,.77,4.77V880.73h-.77Z"/><path class="cls-11" d="M949,853.89a32.67,32.67,0,0,1-4.41,12.91H949Z"/><path class="cls-11" d="M933.8,941.93v25.39c3.92-11.57,15.2-20.88,15.2-20.88H934.82A11.48,11.48,0,0,1,933.8,941.93Z"/><path class="cls-11" d="M944.59,866.8c-.69,1.22-1.42,2.39-2.17,3.49l5.81,10.23v.21H949V866.8Z"/><path class="cls-11" d="M948.23,880.73l-14.43.06v61.14a11.48,11.48,0,0,0,1,4.51H949a16.82,16.82,0,0,1-.77-4.77Z"/><path class="cls-11" d="M948.23,880.52l-5.81-10.23a62.3,62.3,0,0,1-8.62,10.19v.31l14.43-.06Z"/><path class="cls-11" d="M1137.84,941.67a16.5,16.5,0,0,0,.78,4.77h-14.19a13.32,13.32,0,0,1-.85-2.78v23.66c3.92-11.57,15.2-20.88,15.2-20.88V881h-.94Z"/><path class="cls-11" d="M1138.78,853.89a32.67,32.67,0,0,1-4.41,12.91h4.41Z"/><path class="cls-11" d="M1134.37,866.8c-.72,1.27-1.48,2.48-2.26,3.62l5.73,10.1V881h.94V866.8Z"/><path class="cls-11" d="M1138.62,946.44a16.5,16.5,0,0,1-.78-4.77V881l-14.26-.06v62.71a13.32,13.32,0,0,0,.85,2.78Z"/><path class="cls-11" d="M1123.58,880.48V881l14.26.06v-.49l-5.73-10.1A62.46,62.46,0,0,1,1123.58,880.48Z"/><path class="cls-11" d="M1003.88,1021.92q4.39-1.78,8.31-3.24a46.42,46.42,0,0,1-2.54-8.78q-4.85,2.05-9.77,4.3A50.6,50.6,0,0,0,1003.88,1021.92Z"/><path class="cls-11" d="M897.25,1007.26a23.11,23.11,0,0,0-2,1.42C895.82,1008.25,896.48,1007.76,897.25,1007.26Z"/><path class="cls-11" d="M1031.37,943c0-1.36,0-2.6-.07-3.71v2.38C1031.3,942.1,1031.33,942.54,1031.37,943Z"/><path class="cls-11" d="M1017,942v-4.73h0c0,2.93-.07,7.26-.32,12.52-.2,4.16-.3,6.25-.47,7.47-1.24,8.74-7.83,12.53-12.61,19.34,0,0-6.1,8.7-6.61,22.79a35.84,35.84,0,0,0,2.88,14.83q4.92-2.24,9.77-4.3-.18-.93-.3-1.86c-.71-5.18-2.43-17.72,4.76-26.83,5.47-7,14.14-9.38,16.35-18.83a51.22,51.22,0,0,0,.62-7.1c.18-3.24.27-6.2.29-8.84H1018A11.54,11.54,0,0,1,1017,942Z"/><path class="cls-11" d="M979.84,1023.56c-9.63,4.55-20.67,10.33-30.71,6-7.14-3.11-7.76-8.75-22.08-19-8.81-6.29-13-7.32-16.5-7.41a23.2,23.2,0,0,0-13.3,4.14,19.52,19.52,0,0,1,8.23-3,22.49,22.49,0,0,1,9.26,1.2c13.76,5,24.66,31.39,40.46,36.32,9.65,3,12.9-4.86,44.71-18.18,1.35-.57,2.68-1.12,4-1.64a50.6,50.6,0,0,1-4-7.72C993.23,1017.21,986.5,1020.41,979.84,1023.56Z"/><path class="cls-11" d="M1055.77,1012.07c9.61,4.86,17.86,16.7,14.82,25s-16.27,10.74-25,9.87c-14.9-1.47-27.68-13.86-33.4-28.27q-3.91,1.46-8.31,3.24c10.24,16.25,30.37,29.44,50,29.05,3.28-.07,19.93-.41,25.93-11.12,6.2-11.07-.55-30.45-13-38-13-7.85-34.18-1.78-57.23,8a46.42,46.42,0,0,0,2.54,8.78C1043.52,1007,1052.13,1010.23,1055.77,1012.07Z"/><path class="cls-11" d="M1017,937.25V942a11.54,11.54,0,0,0,1,4.46h13.35c0-1.22,0-2.37,0-3.45,0-.45-.07-.89-.07-1.33v-2.38c0-.32,0-.63,0-.93Z"/><path class="cls-11" d="M1279.65,965.24a62.09,62.09,0,0,1-29.16,10.41c-19.6,1.83-36.92-5.46-49.56-13.36a33.65,33.65,0,0,0-2.21,5v-6.45a128.53,128.53,0,0,1-18-14.43h-7a126.46,126.46,0,0,1-7.6-10.17,99.63,99.63,0,0,0,11.33,15.46c26.18,28.95,78,44.43,106.4,23.92,8-5.76,11.53-12.51,17.36-23.61,18.63-35.47,6.18-58.8,23.61-80.55-19.64,22.36-7.25,45.54-28.69,76.85A62.52,62.52,0,0,1,1279.65,965.24Z"/><path d="M1350.79,854c1.24-.44,2.52-.87,3.86-1.27C1354.66,852.74,1353.19,853.12,1350.79,854Z"/><path class="cls-11" d="M1324.79,871.49c8.91-10.14,20.19-15.33,26-17.48C1336.74,859,1329.12,866.08,1324.79,871.49Z"/><path class="cls-11" d="M1180.71,946.44c-13.33-12.62-20.34-25.38-21.19-24.8-.58.39,1.84,6.74,6.57,14.63a126.46,126.46,0,0,0,7.6,10.17Z"/><path class="cls-11" d="M1105,853.89a32.67,32.67,0,0,1-4.41,12.91H1105Z"/><path class="cls-11" d="M1104.07,941.67a16.5,16.5,0,0,0,.78,4.77h-14.22a13.61,13.61,0,0,1-.85-2.87v23.75c3.92-11.57,15.2-20.88,15.2-20.88V880.88h-.91Z"/><path class="cls-11" d="M1103.91,866.83l1.07.29v-.32h-4.41c-.73,1.29-1.51,2.53-2.3,3.69l5.8,10v.36h.91V869C1104.64,868.35,1104.29,867.64,1103.91,866.83Z"/><path class="cls-11" d="M1104.85,946.44a16.5,16.5,0,0,1-.78-4.77V880.88l-14.29,0v62.74a13.61,13.61,0,0,0,.85,2.87Z"/><path class="cls-11" d="M1089.78,880.48v.35l14.29,0v-.36l-5.8-10A62.51,62.51,0,0,1,1089.78,880.48Z"/><path class="cls-11" d="M1105,869v-1.86l-1.07-.29C1104.29,867.64,1104.64,868.35,1105,869Z"/><path class="cls-11" d="M1198.72,946.44v14.43c.72.47,1.46,1,2.21,1.42a59.73,59.73,0,0,1,13-15.85h-15.21Z"/><path class="cls-11" d="M1213.15,941.67a16.5,16.5,0,0,0,.78,4.77V881.39h-.78Z"/><path class="cls-11" d="M1213.93,853.89a32.53,32.53,0,0,1-4.42,12.91h4.42Z"/><path class="cls-11" d="M1213.15,880.52v.86h.78V866.8h-4.42c-.7,1.25-1.46,2.45-2.22,3.58Z"/><path class="cls-11" d="M1199.56,946.44a12.87,12.87,0,0,1-.84-2.73v2.73Z"/><path class="cls-11" d="M1213.15,881.38l-14.43-.08v62.41a12.87,12.87,0,0,0,.84,2.73h14.37a16.5,16.5,0,0,1-.78-4.77Z"/><path class="cls-11" d="M1213.15,880.52l-5.86-10.14a62.4,62.4,0,0,1-8.57,10.1v.82l14.43.08Z"/><path class="cls-11" d="M1198.72,967.32a33.65,33.65,0,0,1,2.21-5c-.75-.47-1.49-.95-2.21-1.42Z"/><path class="cls-16" d="M1066.87,599.23c3.55,4.24,7.84,9.33,12.07,14.46,21.87,26.52,12.85,59.17-3.29,78.46-11.62,13.9-40,14.76-53.42,2.52-8.59-7.85-10.07-18-8.69-28.87,2.4-19,11.67-34.85,23.69-49.23,8.75-10.47,17.92-20.59,26.88-30.89a119.47,119.47,0,0,1,11.77-12.41C1073,581.6,1070.09,589.94,1066.87,599.23Zm-17.4,19.47c-6.57,9-12.38,16.51-17.56,24.39-2.22,3.38-3.52,7.52-4.56,11.5a9.94,9.94,0,0,0,3.87,11.08c10.18,7.65,33.09,9.08,44,2.76,6.57-3.8,7.66-6.68,3.15-12.75C1069.38,643.56,1059.81,631.86,1049.47,618.7Z"/><path class="cls-16" d="M1289.06,1062.52c-7.34-14.4-15.09-29.6-22.87-44.78-.17-.35-.61-.57-1.63-1.46-5.17,19.06-8.72,37.72-7.27,57.6-8.71-5.89-17.49-11.77-26.17-17.78a4.14,4.14,0,0,1-1.34-2.79c-1.71-18.64.09-36.78,8.26-53.74,4-8.25,8.38-9,15.86-3.13,12.36,9.62,22.11,21.49,30.57,34.34,1.45,2.2,1.88,5.18,2.19,7.86C1287.65,1046.93,1288.35,1055.25,1289.06,1062.52Z"/><path class="cls-16" d="M1193.9,1207.22c.55-5.43,1.11-10.86,1.63-16-5.7-5.08-12.3-9.91-17.57-15.9-9.42-10.7-10-33.27-2-45.06,6.22-9.18,22.75-13.57,32.68-8.6a17.52,17.52,0,0,1,9.16,11.23,47.1,47.1,0,0,1-1.56,30.57c-3.24,8.49-7.21,16.71-11.18,24.89-3.15,6.47-6.78,12.71-10.2,19.06Zm8.65-33,2.09-.42c2.46-7.5,5.46-14.87,7.22-22.52,1.37-6-1.48-9.15-7.4-10.12a37.54,37.54,0,0,0-6.78-.49c-7,.16-13.52,1.88-18.81,6.77-2.44,2.27-3.8,5-.63,7.62C1186.25,1161.6,1194.44,1167.88,1202.55,1174.26Z"/><path class="cls-16" d="M942,753.75l10.39-14.21c-2.27-7.22-5.36-14.8-6.95-22.68-3-14.9,9.37-36.44,23.48-42.15,13.52-5.47,33.36,4.06,34.91,17.24a28.85,28.85,0,0,1-2,13,49.94,49.94,0,0,1-18.77,23.41c-10.26,7.07-20.93,13.52-31.43,20.23-2.92,1.87-5.87,3.69-8.81,5.54Zm25.81-25.17,2.07.57c6.08-5.09,12.4-9.92,18.12-15.38,3.08-2.93,5-7.41,1.54-11.19-7.53-8.12-17-12.19-28.2-10.58-3.65.52-6.31,2.5-4.65,6.93Q962.25,713.77,967.84,728.58Z"/><path class="cls-16" d="M1244.14,1144c1.39-3,3-6,4.13-9.09,5.86-15.46,11.32-31,17.57-46.37,1.94-4.77,5.38-9.27,9-13.12,5.61-5.91,11.4-5.31,16.41.83,7.07,8.68,7.33,12.75,1.26,22.34-1.62,2.57-3.45,5-5.36,7.81-2.63-4.67-4.6-9.1-7.43-12.95-3.88-5.27-7.31-5.05-10.93.41a50.4,50.4,0,0,0-4.29,8.72c-6.86,16.73-13.58,33.51-20.51,50.21-1.09,2.65-3,5-4.57,7.48a15.72,15.72,0,0,1-2.19,2c-4.76-18.72-3.58-38.34-13.62-55.64l-4.11,3.71c-6-5.71-12.08-11.42-18.07-17.19a2.13,2.13,0,0,1-.66-1.81c2.6-5.75,5.15-11.54,8.25-17,.37-.65,4.28-.17,6.09.67,9.59,4.44,15.4,12.27,19.52,21.33,6.08,13.41,7.83,27.72,8,42.31,0,1.66,0,3.32,0,5Z"/><path class="cls-16" d="M954.49,1184.76c10.1-13.24,22-25.28,29.43-41.84-5,1.93-9,3.3-12.91,5-13.11,5.69-22.44-1.77-21.84-14.15s1.26-24.86,2.35-37.25a18.2,18.2,0,0,1,3.67-8.55c2.74-3.74,7.36-3,9,1.26,2.47,6.46,5.25,13,2.1,20.46-5.19-2.41-6.76.71-7.75,4.68-.52,2.1-1,4.19-1.54,6.29-1.13,4.81.82,7.24,5.57,5.81,4.54-1.36,8.82-3.77,13-6.17,9.3-5.41,11.88-4.65,16.09,5.35,6.09,14.46,1.88,32.2-10.31,42-6.6,5.3-13.55,10.18-20.42,15.14a45.9,45.9,0,0,1-5.55,3Z"/><path class="cls-16" d="M1052.49,1217.83l-42.15-12.61-1.11,1.5c9.1,14.19,19.45,27.34,33.26,38.31-8.71,2.15-17.17,4.33-25.68,6.24a5.69,5.69,0,0,1-4-1.24,98.22,98.22,0,0,1-28.9-33.9,23.37,23.37,0,0,1-1.78-4.65c-1.51-5.78,0-8.88,5.95-9.72,7.54-1.07,15.24-1.06,22.84-1.76,17.13-1.57,29.89,6.87,41.58,17.87C1052.53,1217.92,1052.47,1218.1,1052.49,1217.83Z"/><path class="cls-16" d="M751.85,957.43c-4.24-3.54-7.75-6.58-11.39-9.47s-7.15-5.41-11.37-8.59l11.68-19-20.38-16.22L733.68,883A68.08,68.08,0,0,1,755,899c.87,1,.72,3.78,0,5.13-2.84,5.06-6.13,9.87-9.25,14.75,5.47,4.37,10.84,8.75,16.31,13,3.25,2.52,3.55,5.12,1.2,8.48C759.43,945.76,755.87,951.36,751.85,957.43Z"/><path class="cls-16" d="M777.69,817,756.38,785.6l-1.65.68c0,3.69.06,7.39,0,11.07-.19,9.65-6,14.12-15.13,11-8.32-2.82-16.45-6.26-24.46-9.88a22.51,22.51,0,0,1-7.73-6.08c-2.67-3.22-.87-6.64,3.34-6.72a47.58,47.58,0,0,1,9.89.82c2.68.5,5.84,1.14,3.8,5.47-.36.75.88,2.76,1.89,3.56,2.44,1.94,5.17,3.51,8.7,5.83.9-2.83,2-5,2.19-7.27a27.6,27.6,0,0,0-1-7.38c-2-9.6.08-12.14,9.91-11.82,11.22.37,22.21,8.12,25.91,18.78,2.62,7.53,4.69,15.25,7,22.89Z"/><path class="cls-16" d="M1233.68,909.39l3.54,31.36,1.43.32a120.37,120.37,0,0,0,16.67-33.4c4,5.33,7.8,10.3,11.4,15.42a5,5,0,0,1,.45,3.72c-3,11.05-7.75,21.26-15.55,29.78-4.84,5.28-8.53,5.2-11.61-1.12-4.12-8.47-8.42-17.22-10.18-26.32-1.21-6.24,1.78-13.3,2.89-20Z"/><path class="cls-16" d="M959.69,840,995,815l-.65-2.59c-3.58-.28-7.16-.53-10.73-.85-11-1-15.6-9.63-11.3-22.31,3.54-10.43,7.82-20.46,12-30.49a26.21,26.21,0,0,1,5.46-8.62c1.91-1.82,5-3.19,7.11-2.58,1.17.33,2.38,5.33,2.11,8-.57,5.66-2.09,11.18-3.24,16.82-5.89-2.35-13.91,3.81-14.08,10.07,0,1.71,2.76,4.82,4.45,5.05,4,.55,8.19,0,12.25-.54,6.68-.93,9,1.48,9,10,.12,18.38-8.9,33.7-22.84,38.32-6.42,2.13-12.94,3.75-19.44,5.46a30.45,30.45,0,0,1-5.23.47Z"/><path class="cls-16" d="M789.73,761.3Q791.38,776.17,793,791l2.21.51,15.63-30.85c3,4,6.63,8.7,10,13.56a5.12,5.12,0,0,1,.4,3.77c-2.73,10.27-7.2,19.72-14.3,27.69-4.84,5.45-8.28,5.31-11.49-1.13-3.84-7.7-7.9-15.68-9.43-24-1.13-6.16,1.63-13,2.65-19.57Z"/><path class="cls-16" d="M1267.33,961.49c3.38-8.85,8.21-18.58,10.73-28.87,3.82-15.61,1.07-31-5.2-45.76-3.86-9.05-3.79-9.54,3.06-17.67C1295.76,903.68,1288.57,942.21,1267.33,961.49Z"/><path class="cls-16" d="M808.83,890.51c.85-2.81,1.63-4.79,2-6.84.87-4.47-.84-6.11-5.11-4.66-3,1-5.71,2.65-8.6,3.92-7.3,3.21-14.6,6.41-21.94,9.51a45.73,45.73,0,0,1-6,1.44c2.65-3.75,4.61-6.37,6.42-9.09,2.67-4,5.39-8,7.79-12.18,1.16-2,2-3.68.1-6.77s-1.3-8.24-.31-12.12c.46-1.81,4.38-2.8,6.8-4,3-1.52,5,.14,4.76,2.8a87.5,87.5,0,0,1-2.64,17.4c-1,3.53-3.69,6.66-5.92,9.75-2.11,2.91-4.62,5.53-6.52,9,1.9-.82,3.83-1.58,5.69-2.48,6.88-3.33,13.7-6.8,20.62-10a36.81,36.81,0,0,1,6.64-2.07c3.61-.91,7.17-1.1,8.88,3.1,1.46,3.59-1.46,9.9-5.07,11.22C814.21,889.21,811.81,889.7,808.83,890.51Z"/><path class="cls-16" d="M822.94,898.86c-1.68,2-3.41,4-5,6-14.95,18.89-20.45,40.34-15.08,63.73,1.85,8-1.49,11.94-6.33,16.51C785.35,951.57,797.18,916.1,822.94,898.86Z"/><path class="cls-16" d="M1177.21,739.91l-19.62-16.6,13-19c6.09,5.29,11.9,10.13,17.38,15.31.8.76.7,3.51,0,4.68C1184.65,729.48,1181,734.43,1177.21,739.91Z"/><path class="cls-16" d="M892.5,691.94c23.61,14.74,37.58,50.62,28.57,70.93-1.18-8-1.78-17.24-4-26-3.2-12.57-10.78-22.71-20.65-31.06C890.54,700.82,890.16,699.68,892.5,691.94Z"/><path class="cls-16" d="M709.73,841.14c-5.31,1.64-9,.26-11.22-3.74-2.71-4.81-2.26-10.36,1.13-13.89a18,18,0,0,1,21.53-3.33c3.47,2,6.64,4.59,11,1.34C725.77,829.57,720,838,709.73,841.14ZM711,822.88a4.83,4.83,0,0,0-3.24-.76c-2.39.63-2.87,6.59-1,11,1.2,2.89,2.88,5.26,6.3,3.17,2.76-1.68,5.15-4,8.53-6.63C717.41,826.93,714.28,824.81,711,822.88Z"/><path class="cls-16" d="M1018.18,731.21c-1.1-5.9-2.93-11.76-3.13-17.69-.23-7,5.83-10.22,11.65-6.18,3.52,2.43,7.39,6.07,8.54,9.94,4.38,14.67,7.72,29.65,11.44,44.52l-2.27.59c-1.17-4.37-2.38-8.73-3.51-13.11-1.69-6.59-2.73-13.42-5.19-19.7-1.54-3.9-4.89-7.32-8.07-10.25-1.25-1.15-4.65-1.09-6.36-.21-1.16.6-1.37,3.58-1.48,5.52a38.66,38.66,0,0,0,.62,6.21Z"/><path class="cls-16" d="M1265,869.33l-6.2-8.05-13.24,31.33-1.46-.34c-.86-5.33-1.57-10.69-2.66-16-.58-2.82-.93-5.37-4.91-6.8-6.21-2.22-7.39-7-4.76-11.76,1.41-2.53,3.25-3.31,5-1.15,2.92,3.69,5.87,7.56,7.72,11.82,2.09,4.82,3,10.16,4.42,15.28l-1.44.61q1.13-2.74,2.27-5.49c2.64-6.43,5.06-13,8-19.24,1.3-2.78,3.44-5.83,7.41-3.51,3.18,1.87,4.12,6.74,2.15,10.07C1266.61,867.22,1265.78,868.21,1265,869.33Z"/><path class="cls-16" d="M948.07,801.35l-15.88-12.63,9.62-15.22c4.88,3.8,9.41,7,13.5,10.75,1,.86,1.15,3.73.47,5C953.62,793.32,950.87,797.06,948.07,801.35Z"/><path class="cls-16" d="M1151.26,620.17l-15.85-12.47c2.93-4.67,5.95-9.51,9.62-15.37,5,4,9.67,7.6,14.12,11.43a3.55,3.55,0,0,1,.5,3.38C1157.05,611.52,1154.16,615.73,1151.26,620.17Z"/><path class="cls-16" d="M1102.45,617.5,1087,605.32l9.3-14.53a29.85,29.85,0,0,1,3.17,1.58C1115.52,603.62,1114.64,601.47,1102.45,617.5Z"/><path class="cls-16" d="M1111.75,626l9.36-14.69c1.35.75,2.25,1.14,3,1.7,16.24,11.48,15.23,9,3.09,25.26Z"/><path class="cls-16" d="M752.28,1036.11c5,3.94,9.33,7.2,13.4,10.8.93.81,1.61,3.22,1.09,4.15-2.51,4.44-5.47,8.63-8.32,13l-15.86-12.59Z"/><path class="cls-16" d="M1198.78,731.29c4.7,4.16,8.92,7.6,12.71,11.47.91.94,1.09,3.75.36,5-2.39,3.92-5.34,7.51-8.43,11.69L1188.28,746Z"/><path class="cls-16" d="M1150.12,755.59c3.09-4.87,6.08-9.58,9.64-15.21,4.86,3.83,9.45,7.23,13.73,11a4.46,4.46,0,0,1,.59,4.22c-2.42,4.26-5.27,8.28-8.1,12.6Z"/><path class="cls-16" d="M922.84,1239.65,908,1226l10.69-14.49c4.58,4.2,8.93,8,12.9,12.07.78.81.66,3.46-.08,4.59C929,1232,926,1235.55,922.84,1239.65Z"/><path class="cls-16" d="M779,1104.43c-3,4.47-5.48,9.38-9.07,13.29-4.63,5-10,3.28-11.87-3.38-1.95-7.17.79-13.54,4.3-19.4,5.62-9.37,11.74-18.43,17.64-27.63l1.14.48a55,55,0,0,1-2.73,6.17c-3.39,5.71-7.38,11.1-10.31,17a33.36,33.36,0,0,0-3.27,12.77c-.11,2.19,2.6,4.51,4,6.77,1.89-1.27,3.87-2.43,5.62-3.86a19.66,19.66,0,0,0,2.7-3.28Z"/><path class="cls-16" d="M945.92,1236.48l8.38-13.8c4.47,3.42,8.57,6.41,12.45,9.65.76.63,1.3,2.63.87,3.38-2.27,4-4.88,7.73-7.47,11.71Z"/><path class="cls-16" d="M1049.42,1127.62c5.3,1.52,9.84,2.5,14.07,4.21,1.38.56,2.85,3.11,2.75,4.65-.26,3.9-1.39,7.74-2.29,12.15l-17.33-5C1047.5,1138.61,1048.37,1133.65,1049.42,1127.62Z"/><path class="cls-16" d="M919.42,835.87c-.94-6.3-1.77-11.82-2.65-17.69l15.2-4.11c1,5.45,2,10.54,2.62,15.68.1.87-1.55,2.49-2.69,2.86C928,833.87,923.93,834.73,919.42,835.87Z"/><path class="cls-16" d="M921,802.14c-12.74,1.82-14.82-.37-12.59-13.27,3.82.5,7.7.85,11.5,1.63.76.16,1.65,2,1.66,3C921.59,796.42,921.19,799.35,921,802.14Z"/><path class="cls-16" d="M1029.19,1185.63c-.94-6.31-1.77-11.83-2.65-17.7l15.21-4.11c1,5.46,2,10.54,2.61,15.68.1.87-1.55,2.5-2.69,2.86C1037.75,1183.62,1033.7,1184.48,1029.19,1185.63Z"/><path class="cls-16" d="M1077.88,1185.07c-12.74,1.82-14.82-.37-12.59-13.28,3.82.5,7.7.86,11.5,1.64.76.15,1.66,1.94,1.67,3C1078.49,1179.34,1078.1,1182.27,1077.88,1185.07Z"/><path class="cls-16" d="M1107.8,1043.55l-14.86-13.67,10.69-14.49c4.58,4.2,8.94,7.94,12.9,12.06.78.82.66,3.47-.08,4.6C1113.92,1035.9,1110.94,1039.45,1107.8,1043.55Z"/><path class="cls-16" d="M1131.93,1009.73l-14.87-13.67,10.7-14.5c4.57,4.21,8.93,8,12.9,12.07.78.81.65,3.47-.09,4.6C1138.05,1002.08,1135.07,1005.63,1131.93,1009.73Z"/><path class="cls-16" d="M1349.72,860.07c-1.71,2-3.47,3.92-5.12,5.94-5.85,7.19-15.31,19.43-16.6,34.56-.71,8.37,1.69,10.92.25,23.43-.62,5.38-1.46,8.38-3,11.25a27.2,27.2,0,0,1-12.75,11.5,54.22,54.22,0,0,0,9.75-20.75c2.85-12.84-.88-20.08-.11-29.3C1322.89,887.64,1328.11,874.79,1349.72,860.07Z"/><path class="cls-16" d="M976.83,954.27c-12.74,1.81-14.82-.37-12.59-13.28,3.82.5,7.7.85,11.5,1.64.76.15,1.65,1.94,1.67,3C977.44,948.54,977,951.47,976.83,954.27Z"/><path class="cls-16" d="M986.38,977.66c-12.74,1.81-14.82-.37-12.59-13.28,3.82.5,7.7.85,11.5,1.64.76.15,1.65,1.94,1.67,3C987,971.93,986.59,974.86,986.38,977.66Z"/><path class="cls-16" d="M1095.74,1003.89l-14.87-13.67,10.7-14.5c4.58,4.21,8.93,7.95,12.9,12.07.78.81.65,3.47-.09,4.6C1101.86,996.24,1098.88,999.79,1095.74,1003.89Z"/><path class="cls-16" d="M761.19,991.83c-4.24-3.53-7.76-6.57-11.39-9.46s-7.16-5.42-11.37-8.59l11.68-19-20.38-16.22c4.2-6.67,8.64-13.74,13.29-21.14a68.08,68.08,0,0,1,21.34,16c.87,1,.72,3.79,0,5.14-2.84,5.06-6.14,9.86-9.25,14.75,5.47,4.37,10.83,8.75,16.31,13,3.25,2.52,3.55,5.12,1.19,8.48C768.77,980.17,765.21,985.77,761.19,991.83Z"/><path class="cls-16" d="M1093.74,721.92c3.78,2.57,7.44,5.35,11.39,7.61,1.51.86,4.43,1.37,5.39.53,1.21-1.06,1.79-3.82,1.4-5.56-2.14-9.57-5.09-19-7-28.59-3.1-16,3.79-26.28,19.74-30a58.08,58.08,0,0,1,11.58-1.14c3.76-.11,7.52.24,11.28.38,12.19.44,16.87-2.43,20.73-14.1,2.56-7.75,4.07-15.84,6.22-23.74a89.58,89.58,0,0,1,3.84-11.42c1.18-2.77,3.35-4.46,6.8-3.56,2.08.54,3.18,1.41,3.3,3.77,1,19.74,2,39.47-.74,59.15-2.16,15.66-6.31,19.48-22.1,20.29-1.61.08-3.23.11-4.83.22-14,.94-21.45,6.37-24.94,19.89-2.9,11.27-4.32,22.91-6.77,34.31a111.52,111.52,0,0,1-5.32,18c-1.76,4.41-4,4.38-7.08.67-3.26-3.91-6.22-8.08-9.57-11.91-11.34-13-25.18-8.08-32.87.62-2.81,3.18-4.08,7.71-6.25,11.5-.72,1.27-2,2.9-3.17,3s-3-1.39-3.38-2.55c-4.89-16.09-3.81-31.44,6.8-45.13,5.73-7.39,13.18-8.63,21.56-4.31,1.32.68,2.57,1.47,3.86,2.21Z"/><path class="cls-16" d="M1092,1203.24c0-1,0-2,0-3,.4-12.74,7.14-19.72,20-20,6-.14,12,.87,17.94.84,1.92,0,4.62-1.25,5.5-2.77.66-1.14-.55-4.08-1.78-5.45-4.12-4.57-8.69-8.73-13-13.19-3.67-3.85-7.33-7.75-10.67-11.88-10.93-13.47-6.81-27,4.14-37.15,3.5-3.23,7.82-5.62,11.9-8.17,2.67-1.67,5.6-2.93,8.4-4.39,12.38-6.43,15.23-11.84,12.16-25.43-2.15-9.55-5.32-18.86-7.75-28.36a37,37,0,0,1-1.36-11.28c.11-1.74,2.39-4.2,4.15-4.7,1.56-.45,4.59.83,5.55,2.28,11.74,17.78,23.19,35.75,31.13,55.67a58.62,58.62,0,0,1,1.91,5.65c2.9,10.22.91,15.86-7.82,21.95-3.27,2.28-6.66,4.39-10,6.55-10.86,7-14.94,17.18-11.56,29.3,3.83,13.74,9.19,27,13.55,40.64a90.16,90.16,0,0,1,3.75,16.91c.56,4.78-1.56,6.07-6.1,4.44-4.85-1.73-9.56-3.84-14.36-5.69-23.19-8.94-35.66,14.18-32,29.93.19.8.7,1.68.52,2.4-.39,1.62-.72,3.68-1.85,4.55-.75.57-3.28-.13-4.27-1.06C1099,1231.37,1092,1218.93,1092,1203.24Z"/><path class="cls-16" d="M887.36,1036.11c-3.69,58.47-7.36,116.53-11.08,175.38L852.53,1209c3.3-57.78,6.59-115.24,9.88-172.87Z"/><path class="cls-16" d="M811.61,1140.15c-16.26-4.36-17.88-3.38-18.77,10.41-4.71-1.54-8-7.26-8-13.8-.12-11.69,9.58-6.31,16.22-8.69-2.63-2.77-4.65-5-6.77-7.1-8.06-8-7.07-14.52,3.1-20,7.56-4,8-5,5.75-13.42-.67-2.57-1.63-5.08-2.06-7.68a8,8,0,0,1,1.23-4.85c6.15,7.51,11.87,15,13.59,24.48.35,1.92-2.09,5.06-4.06,6.57-7.11,5.42-8,7.5-5.27,16,1.24,3.79,2.84,7.46,4,11.26A47.76,47.76,0,0,1,811.61,1140.15Z"/><path class="cls-16" d="M897.71,1225.57h-4.44c.68-13.81,1.3-27.3,2-40.78q2.4-44.7,4.86-89.4c1-17.91,2-35.82,2.86-53.73.19-4,2-3.8,5-3.28C904.55,1100.78,901.15,1162.86,897.71,1225.57Z"/><path class="cls-16" d="M916.27,1083.29c5.23,0,9.6,5,9.5,10.84s-4.64,10.6-9.89,10.52-9.64-5.09-9.5-10.88S910.89,1083.24,916.27,1083.29Z"/><path class="cls-16" d="M933.32,1140.28c-.05,5.89-4.42,10.6-9.72,10.47s-9.63-5.1-9.54-10.84c.09-6,4.28-10.33,9.88-10.27S933.38,1134.1,933.32,1140.28Z"/><path class="cls-16" d="M1003.37,959.71c-12.74,1.82-14.82-.37-12.58-13.27,3.81.5,7.7.85,11.49,1.63.76.16,1.66,1.95,1.67,3C1004,954,1003.59,956.92,1003.37,959.71Z"/><path class="cls-16" d="M742.71,1067.58c4.95,3.93,9.32,7.2,13.4,10.79.92.82,1.6,3.23,1.08,4.16-2.5,4.44-5.46,8.62-8.31,13L733,1082.92C736,1078.18,739.05,1073.36,742.71,1067.58Z"/><path class="cls-16" d="M722.71,1025.94c4.95,3.93,9.32,7.19,13.4,10.79.92.82,1.6,3.22,1.08,4.16-2.5,4.44-5.46,8.62-8.31,13L713,1041.27C716,1036.54,719.05,1031.71,722.71,1025.94Z"/><path class="cls-16" d="M1201.26,1054.74c-.59,4.11-3.38,6.76-8,7.09-4.23.31-8.37-4.06-8-8.26.47-4.63,3.19-7.45,7.91-7.68C1197.53,1045.68,1201.43,1049.91,1201.26,1054.74Z"/><path class="cls-16" d="M920.79,1047.14c9.53,4.55,18.81,9.8,28.69,13.37,4.79,1.73,11.33,1.9,16,0,11.38-4.52,22.12-10.62,33.11-16.09-12.55,8.79-25,17.69-37.77,26.21a7.54,7.54,0,0,1-6.8-.06C942.78,1063,931.83,1055,920.79,1047.14Z"/><path class="cls-16" d="M1201.33,788.72c3.17-5,5.86-10.38,9.62-14.87,9-10.77,18.56-21.12,29-32.82l-40.15-43.41c3.25,1.66,7,2.73,9.65,5.06,12.18,10.72,24,21.78,36.81,33.43l38.27-35,1.84,1.68L1253,741.29l37.42,42.34-1.32,1.45L1246,746.15Z"/><path class="cls-16" d="M1178,1030.34c-.59,4.11-3.38,6.76-8,7.1-4.23.31-8.37-4.06-7.95-8.26.47-4.64,3.19-7.46,7.91-7.69C1174.31,1021.28,1178.21,1025.51,1178,1030.34Z"/><path class="cls-16" d="M778.69,1038.15c10.3,2.33,20.51,5.38,30.94,6.68,5.06.62,11.47-.67,15.61-3.51,10.08-6.92,19.2-15.26,28.71-23-10.29,11.35-20.48,22.8-31,33.93a7.48,7.48,0,0,1-6.64,1.45C803.66,1048.76,791.2,1043.38,778.69,1038.15Z"/><path class="cls-16" d="M1267.33,842.54c9.53,4.56,18.81,9.8,28.69,13.38,4.79,1.73,11.33,1.9,16,.05,11.37-4.52,22.11-10.63,33.11-16.09-12.56,8.78-25,17.69-37.77,26.21a7.54,7.54,0,0,1-6.8-.07C1289.33,858.43,1278.37,850.42,1267.33,842.54Z"/><path class="cls-16" d="M1009.36,1142.48c-.2-3.74-.8-7.5-.52-11.19.69-8.87,1.78-17.7,2.82-27.54L975,1096.18c2.28-.34,4.61-1.17,6.83-.94,10.21,1,20.39,2.36,31.24,3.66,2.35-11.07,4.59-21.57,6.83-32.08l1.56.19c-1,10.49-2,21-3,32.06l34.83,8c0,.41-.09.83-.14,1.24l-36.51-4.17C1014.19,1117.14,1011.78,1129.81,1009.36,1142.48Z"/><path class="cls-16" d="M1157.77,1010.61,1172,993l-.76-.94c-1.91.63-3.82,1.27-5.73,1.88-5.88,1.86-9.7-.74-9.53-6.86.13-5,.72-10,1.27-15a11.78,11.78,0,0,1,1.43-4.68,5.54,5.54,0,0,1,3.28-2.53c.67-.11,2.11,1.7,2.41,2.85a62.91,62.91,0,0,1,1.07,7.6c-3.46.25-6.63,4.45-5.69,7.06.26.71,2.23,1.41,3.14,1.16a32.57,32.57,0,0,0,6.3-2.76c3.32-1.76,4.92-1.25,6.34,2.24a17,17,0,0,1-5.62,20.51c-3,2.2-6.13,4.22-9.23,6.26a20.24,20.24,0,0,1-2.65,1.28Z"/><path class="cls-16" d="M834.27,1198.39h-4.44c.68-10.93,1.3-21.6,2-32.27q2.4-35.36,4.86-70.72c1-14.17,2-28.33,2.86-42.51.19-3.17,2-3,5-2.59C841.11,1099.67,837.71,1148.78,834.27,1198.39Z"/><path class="cls-16" d="M923.82,1185.82c-.05,5.9-4.43,10.61-9.73,10.48s-9.62-5.1-9.54-10.84c.09-6,4.29-10.33,9.89-10.28S923.87,1179.65,923.82,1185.82Z"/><path class="cls-16" d="M951.18,1017a62.46,62.46,0,0,1-.38-8.18c.5-6.48,1.3-12.94,2.06-20.13l-26.77-5.53c1.66-.25,3.36-.85,5-.69,7.46.75,14.9,1.72,22.83,2.67,1.72-8.09,3.36-15.76,5-23.44l1.14.14c-.71,7.66-1.43,15.33-2.19,23.43l25.46,5.86c0,.3-.07.6-.11.9l-26.68-3C954.71,998.47,952.94,1007.73,951.18,1017Z"/><path class="cls-16" d="M1202.36,1026.46l-14.86-13.67,10.69-14.49c4.58,4.2,8.93,7.94,12.9,12.06.78.82.65,3.47-.09,4.6C1208.48,1018.81,1205.5,1022.36,1202.36,1026.46Z"/><path class="cls-16" d="M806.87,705.68c3.78,2.57,7.44,5.35,11.39,7.61,1.51.86,4.43,1.37,5.39.53,1.21-1.06,1.79-3.82,1.4-5.56-2.14-9.57-5.09-19-7-28.59-3.1-16,3.79-26.28,19.74-30a58.11,58.11,0,0,1,11.59-1.14c3.75-.11,7.51.24,11.27.38,12.19.44,16.87-2.43,20.73-14.1,2.56-7.75,4.07-15.84,6.22-23.74a89.63,89.63,0,0,1,3.85-11.42c1.17-2.77,3.35-4.46,6.79-3.56,2.08.54,3.19,1.41,3.3,3.77,1,19.74,2,39.47-.74,59.15-2.16,15.66-6.31,19.48-22.1,20.29-1.61.08-3.22.11-4.83.22-14,.93-21.45,6.37-24.93,19.89-2.91,11.27-4.33,22.91-6.78,34.31a112.5,112.5,0,0,1-5.31,18c-1.77,4.41-4,4.38-7.09.67-3.26-3.91-6.22-8.08-9.57-11.91-11.34-13-25.17-8.08-32.87.62-2.81,3.18-4.07,7.71-6.25,11.5-.72,1.27-2,2.9-3.17,3s-3-1.38-3.38-2.54c-4.89-16.09-3.81-31.44,6.8-45.13,5.74-7.39,13.18-8.63,21.57-4.31,1.31.68,2.56,1.47,3.85,2.21Z"/><path class="cls-16" d="M717.39,768s12.11-44,38.11-59c0,0-5.5,42.22,8.5,49.61C764,758.61,726.78,756.5,717.39,768Z"/><path class="cls-16" d="M1287.59,995.93s63.7-16.24,69.11-61.9C1356.7,934,1352.17,1001.52,1287.59,995.93Z"/><path class="cls-16" d="M1043.1,1058c.3,0,.77,0,1.25,0,.15,0,.29-.14.09,0,4.06,5.26,8,10.55,12.14,15.63,3,3.59,6.44,6.8,6.06,12-.37,0-1.38-.21-1.43-.07-1.09,3.09-3.88,2.65-6.22,3.06-6.13,1.06-12.27,2.08-18.4,3.1a8.83,8.83,0,0,1-2.44.21c-3.2-.43-4-2-2.66-5.31,1.73-4.28,3.65-8.49,5.35-12.78,1.62-4.1,3-8.29,4.6-12.42C1041.84,1060.3,1042.45,1059.29,1043.1,1058Z"/><path class="cls-16" d="M1027.14,790.46l10.85,4.39c2.34-3.24,4.82-6.53,7.15-9.92,2.69-3.88,6.5-4,9.91-2.07,3.11,1.76,6.56,4,4.27,9.06-1.94,4.33-2.93,9.07-4.42,13.87,2.36,2,4.95,4.05,7.34,6.31,4.28,4,5.12,9.45,2.24,13.24-2.61,3.44-8.52,3.74-13.37.58-1.92-1.26-3.71-2.71-5.65-4.14l-10.44,12c-13.57-8.07-14.48-10.4-8.74-21.67-2-3.45-8.08-4.9-5.92-10.3C1021.88,798,1024.58,794.64,1027.14,790.46Z"/><path class="cls-16" d="M899.19,836.33l-4,1.16,2.61,4.82c-13-.56-25.21,1.52-37.54,5.36-6.24,1.94-13.29,2.48-19.91,2.87-5.94.34-7.34-2.11-4.52-6.16a7,7,0,0,1,2-2.18c14.38-8.28,29.45-15,47.44-14.08C893.48,828.53,896.8,830.62,899.19,836.33Z"/><path class="cls-16" d="M1106,765.34c1.33,4,2.22,8,4.15,11.81,1.14,2.24,3.12,4.83,6.12,5.71,4.71,1.39,9.72-.44,13.21-3.91,5-5,5.45-10.07,5-15.16-.17-2-.35-4-.53-6l2.28-.6c1.3,2.52,4,5,3.64,7.59a85.7,85.7,0,0,1-5.09,19.61c-1.29,3.32-4.75,7.14-11.09,7.59s-11-1.57-12.88-5.28A136.77,136.77,0,0,1,1105,772.2a44.63,44.63,0,0,1-1.37-6.27Z"/><path class="cls-16" d="M1121.75,808c1.75-2.3,2.17-3.39,3-3.79q28.14-14.34,56.37-28.49a1.51,1.51,0,0,1,1.32.15c.36,4.5.69,8.46,1,12.43.55,7.28.44,14.67,1.74,21.8,2.22,12.22,5.42,24.26,7.93,36.42.38,1.83-.74,4-1.16,6-1.49-1.21-3.48-2.13-4.39-3.67-6.31-10.69-12.26-21.59-18.71-32.18-1-1.68-3.93-2.86-6.08-3.07-9-.89-18.16-1.06-27.2-2C1131.23,811.09,1127.08,809.43,1121.75,808Zm15.62-2.37.12,1c1.91.15,3.83.32,5.74.44,7.62.49,15.24,1.06,22.87,1.39,3.57.16,5.77,1.75,7.38,4.88,2.91,5.67,6.11,11.2,9.29,17L1177,784.78Z"/><path class="cls-16" d="M1245.87,769l32.86,30.41L1237.67,820c4.39-4.92,8.54-9.76,12.91-14.4,2.42-2.56,3.19-5.17,2.15-8.59-2.22-7.3-4.22-14.67-6.29-22-.53-1.85-1-3.71-1.49-5.57Z"/><path class="cls-16" d="M919.57,637.21l32.86,30.41-41.06,20.63c4.39-4.92,8.54-9.77,12.91-14.41,2.42-2.56,3.19-5.16,2.15-8.59-2.22-7.3-4.22-14.67-6.3-22-.52-1.84-1-3.71-1.48-5.56Z"/><path class="cls-16" d="M1313.39,1058.26l-13.18-42.79,45.87,2.75c-6.27,2.06-12.29,4.17-18.4,6-3.37,1-5.35,2.86-6.16,6.35-1.74,7.43-3.71,14.81-5.6,22.21-.47,1.86-1,3.71-1.5,5.56Z"/><path class="cls-16" d="M911.24,615.73c1.76-2.3,2.17-3.39,3-3.78q28.14-14.36,56.37-28.5a1.51,1.51,0,0,1,1.32.15c.36,4.5.69,8.47,1,12.43.54,7.28.43,14.67,1.73,21.81,2.22,12.21,5.42,24.25,7.93,36.42.38,1.82-.74,4-1.16,5.94-1.49-1.21-3.47-2.12-4.39-3.67-6.31-10.68-12.25-21.59-18.71-32.18-1-1.68-3.92-2.86-6.08-3.07-9-.88-18.16-1.06-27.2-2C920.72,618.8,916.57,617.14,911.24,615.73Zm15.62-2.36.12,1c1.91.15,3.83.33,5.75.45,7.61.48,15.23,1,22.86,1.38,3.57.16,5.77,1.76,7.38,4.89,2.92,5.67,6.11,11.19,9.29,17l-5.79-45.58Q946.63,602.94,926.86,613.37Z"/><path class="cls-16" d="M987.12,631.56l30-16.84-.55-1.74c-3-.19-6.09-.35-9.13-.57-9.34-.67-13.27-6.48-9.61-15,3-7,6.65-13.76,10.23-20.5a17.59,17.59,0,0,1,4.65-5.8c1.62-1.22,4.21-2.15,6-1.74,1,.22,2,3.59,1.8,5.38-.49,3.81-1.78,7.51-2.76,11.31-5-1.58-11.83,2.56-12,6.77,0,1.15,2.35,3.25,3.78,3.4a48.53,48.53,0,0,0,10.42-.36c5.68-.63,7.65,1,7.7,6.71.1,12.36-7.57,22.67-19.43,25.78-5.46,1.43-11,2.52-16.53,3.66a31.29,31.29,0,0,1-4.45.32Z"/><path class="cls-16" d="M1224.66,684c1.33,4,2.22,8.05,4.15,11.81,1.15,2.24,3.12,4.83,6.12,5.71,4.71,1.39,9.72-.44,13.21-3.91,5-5,5.45-10.07,5-15.16-.17-2-.35-4-.53-6.05l2.28-.6c1.31,2.52,4,4.95,3.64,7.59a85.7,85.7,0,0,1-5.09,19.61c-1.29,3.31-4.75,7.14-11.09,7.58s-11-1.56-12.88-5.27a138.94,138.94,0,0,1-5.83-14.45,44.63,44.63,0,0,1-1.37-6.27Z"/><path class="cls-16" d="M1344.18,828.41c-12.74,1.82-14.81-.37-12.58-13.27,3.81.5,7.7.85,11.49,1.63.76.16,1.66,2,1.67,3C1344.8,822.69,1344.4,825.62,1344.18,828.41Z"/><path class="cls-16" d="M1332.18,798.35c-12.74,1.81-14.81-.37-12.58-13.28,3.81.5,7.7.85,11.49,1.64.76.15,1.66,1.94,1.67,3C1332.8,792.62,1332.4,795.55,1332.18,798.35Z"/><path class="cls-16" d="M1321.18,770.35c-12.74,1.81-14.81-.37-12.58-13.28,3.81.5,7.7.85,11.49,1.64.76.15,1.66,1.94,1.67,3C1321.8,764.62,1321.4,767.55,1321.18,770.35Z"/><path class="cls-16" d="M832.8,950.75c0,3.9-2.93,7-6.44,6.93s-6.36-3.37-6.31-7.17c.06-4,2.84-6.84,6.54-6.8S832.83,946.66,832.8,950.75Z"/><path class="cls-16" d="M847.09,966.38c0,3.9-2.93,7-6.44,6.93s-6.37-3.38-6.31-7.18,2.84-6.83,6.54-6.8S847.12,962.29,847.09,966.38Z"/><path class="cls-16" d="M832.13,978.09c0,3.9-2.93,7-6.43,6.93s-6.37-3.38-6.32-7.17c.06-4,2.84-6.84,6.54-6.8S832.17,974,832.13,978.09Z"/><path class="cls-16" d="M1307.62,741.34c-12.74,1.81-14.82-.37-12.58-13.28,3.81.5,7.7.85,11.49,1.64.76.15,1.66,1.94,1.67,3C1308.23,735.61,1307.84,738.54,1307.62,741.34Z"/><path class="cls-16" d="M1085.94,799.45l32.86,30.41-41.06,20.63c4.39-4.92,8.54-9.77,12.91-14.41,2.42-2.56,3.19-5.16,2.15-8.58-2.22-7.31-4.22-14.68-6.3-22-.52-1.84-1-3.71-1.48-5.56Z"/><path class="cls-16" d="M1093,1106.89l-13.18-42.78,45.87,2.74c-6.26,2.06-12.29,4.17-18.4,6-3.37,1-5.35,2.87-6.16,6.35-1.74,7.43-3.71,14.81-5.59,22.21-.48,1.86-1,3.71-1.51,5.56Z"/></svg>